<?xml version="1.0" encoding="iso-8859-1"?>
<!-- Generator: Adobe Illustrator 16.0.0, SVG Export Plug-In . SVG Version: 6.00 Build 0)  -->
<!DOCTYPE svg PUBLIC "-//W3C//DTD SVG 1.1//EN" "http://www.w3.org/Graphics/SVG/1.1/DTD/svg11.dtd">
<svg xmlns="http://www.w3.org/2000/svg" xmlns:xlink="http://www.w3.org/1999/xlink" version="1.1" id="Capa_1" x="0px" y="0px" width="512px" height="512px" viewBox="0 0 487.339 487.339" style="enable-background:new 0 0 487.339 487.339;" xml:space="preserve">
<g>
	<g id="Layer_2_4_">
		<g>
			<path d="M193.215,213.957c-12.518,0-22.671,10.149-22.671,22.653c0,12.487,10.153,22.651,22.671,22.651     c12.485,0,22.637-10.133,22.637-22.651C215.853,224.107,205.7,213.957,193.215,213.957z M197.858,251.043     c-6.415,0-11.61-5.21-11.61-11.64c0-6.403,5.195-11.609,11.61-11.609s11.593,5.206,11.593,11.609     C209.452,245.833,204.274,251.043,197.858,251.043z" fill="#add8e6"/>
			<path d="M294.124,213.957c-12.485,0-22.638,10.149-22.638,22.653c0,12.519,10.151,22.651,22.638,22.651     c12.518,0,22.671-10.164,22.671-22.651C316.794,224.107,306.641,213.957,294.124,213.957z M289.48,251.043     c-6.415,0-11.593-5.21-11.593-11.64c0-6.403,5.178-11.609,11.593-11.609s11.61,5.206,11.61,11.609     C301.09,245.833,295.895,251.043,289.48,251.043z" fill="#add8e6"/>
			<path d="M452.077,303.237c-1.661-8.968-36.959-31.953-51.175-48.181c3.534-2.252,6.672-5.082,9.353-8.473     c7.028-8.888,10.593-21.022,10.593-36.065c0-24.951-10.597-44.151-28.073-51.772h0.452c4.341-19.422,15.032-65.368,17.285-75.037     c0.964-3.405,1.491-6.994,1.491-10.708c0-16.936-10.73-31.365-25.763-36.863c-0.019-0.007-0.036-0.018-0.055-0.025     C329.608,12.391,286.941,0.103,243.668,0c-43.272,0.104-85.938,12.391-142.517,36.114c-0.018,0.007-0.036,0.018-0.054,0.025     c-15.031,5.498-25.761,19.927-25.761,36.863c0,3.714,0.527,7.303,1.491,10.708c2.253,9.669,12.945,55.614,17.285,75.037h0.452     c-17.477,7.621-28.073,26.821-28.073,51.772c0,15.043,3.564,27.178,10.593,36.065c2.681,3.391,5.817,6.221,9.353,8.473     c-14.216,16.229-49.514,39.213-51.175,48.181c-1.445,7.81,22.166,32.446,74.739,49.532     c-24.066,13.528-43.416,37.438-43.416,64.789v69.78h177.084h177.084v-69.78c0-27.351-19.35-51.261-43.416-64.789     C429.911,335.684,453.522,311.047,452.077,303.237z M198.419,80.898c0-5.599,4.538-10.136,10.137-10.136h19.547V51.215     c0-5.598,4.537-10.136,10.136-10.136h10.862c5.599,0,10.136,4.538,10.136,10.136v19.547h19.547     c5.599,0,10.137,4.538,10.137,10.136v10.861c0,5.599-4.538,10.136-10.137,10.136h-19.547v19.548     c0,5.598-4.537,10.136-10.136,10.136h-10.862c-5.599,0-10.136-4.538-10.136-10.136v-19.548h-19.547     c-5.599,0-10.137-4.538-10.137-10.136V80.898L198.419,80.898z M398.244,417.559v47.271H243.888v-0.021h-0.219h-0.219v0.021     H89.095v-47.271c0-28.228,34.053-53.381,61.419-54.012c20.304,30.883,55.05,49.81,92.214,49.81c0.314,0,0.627-0.013,0.941-0.016     c0.314,0.003,0.627,0.016,0.941,0.016c37.164,0,71.91-18.927,92.214-49.81C364.192,364.18,398.244,389.332,398.244,417.559z      M243.669,390.816c-0.073-0.001-0.146-0.002-0.219-0.003v0.023c-0.241,0.004-0.481,0.01-0.723,0.01     c-23.543,0-45.867-9.548-62.15-25.844v-33.628c19.944,9.885,40.943,15.049,61.772,15.049c0.439,0,0.88-0.017,1.319-0.021     c0.439,0.004,0.88,0.021,1.319,0.021c20.829,0,41.828-5.164,61.772-15.049v33.628c-16.283,16.296-38.607,25.844-62.15,25.844     c-0.241,0-0.481-0.006-0.723-0.01v-0.023C243.815,390.814,243.742,390.814,243.669,390.816z M377.233,241.189     c-0.348,0-0.863-0.041-1.409-0.083l-7.231-0.536l-3.069,5.953c-19.774,38.357-65.93,79.641-120.534,79.641     c-0.367,0-0.734-0.008-1.101-0.013v-0.023c-0.073,0.001-0.146,0.001-0.219,0.002c-0.073-0.001-0.146-0.001-0.219-0.002v0.023     c-0.366,0.005-0.733,0.013-1.101,0.013c-54.604,0-100.759-41.283-120.534-79.641l-3.069-5.953l-7.231,0.536     c-0.546,0.042-1.063,0.083-1.41,0.083c-15.496,0-23.354-10.319-23.354-30.671c0-2.79,0.227-8.195,1.673-13.943     c16.758,1.379,82.662,2.448,140.559-8.663c6.188-1.188,9.563-2.313,14.438-2.313s6.188,0.313,11.07,1.5     c57,13.865,127.794,10.844,144.424,9.475c1.446,5.749,1.673,11.154,1.673,13.943C400.587,230.87,392.73,241.189,377.233,241.189z     " fill="#add8e6"/>
		</g>
	</g>
</g>
<g>
</g>
<g>
</g>
<g>
</g>
<g>
</g>
<g>
</g>
<g>
</g>
<g>
</g>
<g>
</g>
<g>
</g>
<g>
</g>
<g>
</g>
<g>
</g>
<g>
</g>
<g>
</g>
<g>
</g>
</svg>
